<svg xmlns="http://www.w3.org/2000/svg" viewBox="0 0 48 48" id="shipping"><path fill="#f8f9f9" d="M46 26c-3.13 5.49-3.75 8-5 13H8a43.25 43.25 0 0 0-2.62-8.74A38.58 38.58 0 0 0 2 24h17l5 2Z"></path><path fill="#bec6c6" d="M5 16h12v8H5z"></path><path fill="#f8f9f9" d="M14 10v6H8v-6a2 2 0 0 1 2-2h2a2 2 0 0 1 2 2Z"></path><path fill="#bec6c6" d="M27 2v3l-13 7v-2a2 2 0 0 0-2-2h-2Z"></path><path fill="#414141" d="M41 40H8a1 1 0 0 1-1-.78l-.43-2a37.6 37.6 0 0 0-5.4-12.67A1 1 0 0 1 2 23c18.16 0 17.11 0 17.37.07L24.19 25H46a1 1 0 0 1 .86 1.52A40.73 40.73 0 0 0 42 39.24a1 1 0 0 1-1 .76ZM8.8 38h31.42a41.38 41.38 0 0 1 4.05-11H24c-.26 0-.07.05-5.19-2h-15A40.13 40.13 0 0 1 8.8 38Z"></path><path fill="#bec6c6" d="M46 36c-2.75 0-2.75 2-5.5 2s-2.76-2-5.5-2-2.75 2-5.5 2-2.75-2-5.5-2-2.75 2-5.5 2-2.76-2-5.5-2-2.75 2-5.5 2-2.75-2-5.5-2v11h44Z"></path><path fill="#414141" d="M40.5 39a5.13 5.13 0 0 1-3.35-1.19A3.13 3.13 0 0 0 35 37c-2.22 0-2.46 2-5.5 2a5.12 5.12 0 0 1-3.34-1.19A3.13 3.13 0 0 0 24 37c-2.21 0-2.45 2-5.5 2s-3.28-2-5.5-2-2.45 2-5.5 2-3.28-2-5.5-2a1 1 0 0 1 0-2c3.05 0 3.27 2 5.5 2s2.5-2 5.5-2 3.27 2 5.49 2S21 35 24 35a5.12 5.12 0 0 1 3.34 1.19 3.13 3.13 0 0 0 2.16.81c2.25 0 2.42-2 5.5-2a5.12 5.12 0 0 1 3.34 1.19 3.16 3.16 0 0 0 2.16.81c2.25 0 2.42-2 5.5-2a1 1 0 0 1 0 2c-2.19 0-2.48 2-5.5 2zm0 6a5.13 5.13 0 0 1-3.35-1.19A3.13 3.13 0 0 0 35 43c-2.22 0-2.46 2-5.5 2a5.12 5.12 0 0 1-3.34-1.19A3.13 3.13 0 0 0 24 43c-2.21 0-2.45 2-5.5 2s-3.28-2-5.5-2-2.45 2-5.5 2-3.28-2-5.5-2a1 1 0 0 1 0-2c3.05 0 3.27 2 5.5 2s2.5-2 5.5-2 3.27 2 5.49 2S21 41 24 41a5.12 5.12 0 0 1 3.34 1.19 3.13 3.13 0 0 0 2.16.81c2.25 0 2.42-2 5.5-2a5.12 5.12 0 0 1 3.34 1.19 3.16 3.16 0 0 0 2.16.81c2.25 0 2.42-2 5.5-2a1 1 0 0 1 0 2c-2.19 0-2.48 2-5.5 2zM17 25H5a1 1 0 0 1-1-1v-8a1 1 0 0 1 1-1h12a1 1 0 0 1 1 1v8a1 1 0 0 1-1 1zM6 23h10v-6H6z"></path><path fill="#414141" d="M18 17H4a1 1 0 0 1 0-2h14a1 1 0 0 1 0 2Z"></path><path fill="#f8f9f9" d="M8 19h2v2H8zM12 19h2v2h-2z"></path><path fill="#414141" d="M14 17H8a1 1 0 0 1-1-1v-6a3 3 0 0 1 3-3h2a3 3 0 0 1 3 3v6a1 1 0 0 1-1 1Zm-5-2h4v-5a1 1 0 0 0-1-1h-2a1 1 0 0 0-1 1Z"></path><path fill="#414141" d="M14 13a1 1 0 0 1-.47-1.88L26 4.4v-1L10.33 8.94a1 1 0 0 1-.66-1.88l17-6A1 1 0 0 1 28 2v3a1 1 0 0 1-.53.88C13.33 13.49 14.36 13 14 13Z"></path><path fill="#414141" d="M27 15c-3 0-3.92-4-2-4a1 1 0 0 1 1 1 1 1 0 1 0 1.47-.88A2.89 2.89 0 0 1 26 8.54V5a1 1 0 0 1 2 0v3.54a.93.93 0 0 0 .42.82A3 3 0 0 1 27 15Z"></path><path fill="#f8f9f9" d="M43 26h-8v-8h8zM35 26h-8v-8h8zM41 18h-8v-8h8z"></path><path fill="#414141" d="M43 27h-8a1 1 0 0 1-1-1v-8a1 1 0 0 1 1-1h8a1 1 0 0 1 1 1v8a1 1 0 0 1-1 1Zm-7-2h6v-6h-6Z"></path><path fill="#6457ff" d="M40 21h-2v-2h2zM38 13h-2v-2h2z"></path><path fill="#414141" d="M35 27h-8a1 1 0 0 1-1-1v-8a1 1 0 0 1 1-1h8a1 1 0 0 1 1 1v8a1 1 0 0 1-1 1Zm-7-2h6v-6h-6Z"></path><path fill="#6457ff" d="M32 21h-2v-2h2z"></path><path fill="#414141" d="M41 19h-8a1 1 0 0 1-1-1v-8a1 1 0 0 1 1-1h8a1 1 0 0 1 1 1v8a1 1 0 0 1-1 1Zm-7-2h6v-6h-6Z"></path></svg>