<svg width="54" height="51" viewBox="0 0 54 51" fill="none" xmlns="http://www.w3.org/2000/svg">
<g clip-path="url(#clip0_3_6)" filter="url(#filter0_d_3_6)">
<g filter="url(#filter1_d_3_6)">
<mask id="path-1-inside-1_3_6" fill="white">
<path d="M49.7937 33.3836C49.5637 33.0598 49.2036 32.8673 48.7925 32.8673H36.8814H36.4135H12.0572H11.5821H6.55516C6.14475 32.8673 5.78466 33.0605 5.55394 33.3836C5.33041 33.7006 5.28729 34.0794 5.42385 34.4307L8.35491 39.2941C8.36929 39.3216 8.38366 39.3491 8.39804 39.3766C9.33457 41.5394 11.5167 42.9309 13.9655 42.9309H41.3822C43.831 42.9309 46.0131 41.5394 46.9496 39.3766C46.964 39.3491 46.9784 39.3216 46.9928 39.2941L49.9238 34.4307C50.0604 34.0794 50.0101 33.7006 49.7937 33.3836ZM25.3871 27.6038V29.9111H13.6916C13.3495 29.9111 13.0253 30.0376 12.7745 30.2699C12.5294 30.5119 12.3957 30.8247 12.3957 31.1513V31.6264H35.4597L34.6554 30.5814C34.3751 30.1572 33.9438 29.9193 33.4393 29.9111H26.8275V25.3371H41.9227C42.1893 25.3371 42.4337 25.1996 42.5566 24.9789C42.6867 24.7514 42.6716 24.4832 42.5279 24.2694L26.7413 1.42725L26.7125 1.37912C26.7053 1.37225 26.7053 1.36537 26.6981 1.36537C26.6694 1.31725 26.6334 1.28287 26.5903 1.2485C26.5465 1.20725 26.4969 1.17287 26.4466 1.15225C26.3963 1.12475 26.3452 1.10412 26.2877 1.09037C26.2805 1.09037 26.2662 1.0835 26.2518 1.0835C26.2079 1.07662 26.1655 1.06906 26.1217 1.06906C26.0929 1.06906 26.0714 1.06906 26.0426 1.07594C26.0139 1.07594 25.9779 1.08281 25.9413 1.08969C25.9053 1.09656 25.8766 1.11031 25.8407 1.12406C25.7968 1.13781 25.7544 1.15844 25.7106 1.18594C16.1404 7.05512 8.32688 15.9136 4.25085 25.5097C3.9691 25.8961 3.9195 26.3917 4.12794 26.8256C4.35794 27.3075 4.84094 27.6038 5.38863 27.6038H25.3871ZM25.3871 23.87C23.0756 18.2215 23.0756 11.2502 25.3871 5.09162V23.87Z"/>
</mask>
<path d="M49.7937 33.3836C49.5637 33.0598 49.2036 32.8673 48.7925 32.8673H36.8814H36.4135H12.0572H11.5821H6.55516C6.14475 32.8673 5.78466 33.0605 5.55394 33.3836C5.33041 33.7006 5.28729 34.0794 5.42385 34.4307L8.35491 39.2941C8.36929 39.3216 8.38366 39.3491 8.39804 39.3766C9.33457 41.5394 11.5167 42.9309 13.9655 42.9309H41.3822C43.831 42.9309 46.0131 41.5394 46.9496 39.3766C46.964 39.3491 46.9784 39.3216 46.9928 39.2941L49.9238 34.4307C50.0604 34.0794 50.0101 33.7006 49.7937 33.3836ZM25.3871 27.6038V29.9111H13.6916C13.3495 29.9111 13.0253 30.0376 12.7745 30.2699C12.5294 30.5119 12.3957 30.8247 12.3957 31.1513V31.6264H35.4597L34.6554 30.5814C34.3751 30.1572 33.9438 29.9193 33.4393 29.9111H26.8275V25.3371H41.9227C42.1893 25.3371 42.4337 25.1996 42.5566 24.9789C42.6867 24.7514 42.6716 24.4832 42.5279 24.2694L26.7413 1.42725L26.7125 1.37912C26.7053 1.37225 26.7053 1.36537 26.6981 1.36537C26.6694 1.31725 26.6334 1.28287 26.5903 1.2485C26.5465 1.20725 26.4969 1.17287 26.4466 1.15225C26.3963 1.12475 26.3452 1.10412 26.2877 1.09037C26.2805 1.09037 26.2662 1.0835 26.2518 1.0835C26.2079 1.07662 26.1655 1.06906 26.1217 1.06906C26.0929 1.06906 26.0714 1.06906 26.0426 1.07594C26.0139 1.07594 25.9779 1.08281 25.9413 1.08969C25.9053 1.09656 25.8766 1.11031 25.8407 1.12406C25.7968 1.13781 25.7544 1.15844 25.7106 1.18594C16.1404 7.05512 8.32688 15.9136 4.25085 25.5097C3.9691 25.8961 3.9195 26.3917 4.12794 26.8256C4.35794 27.3075 4.84094 27.6038 5.38863 27.6038H25.3871ZM25.3871 23.87C23.0756 18.2215 23.0756 11.2502 25.3871 5.09162V23.87Z" fill="#0038FF"/>
<path d="M49.7937 33.3836L51.4456 32.2561L51.4351 32.2407L51.4243 32.2255L49.7937 33.3836ZM5.55394 33.3836L3.92624 32.2214L3.91955 32.2309L5.55394 33.3836ZM5.42385 34.4307L3.55973 35.1553L3.62207 35.3157L3.71089 35.4631L5.42385 34.4307ZM8.35491 39.2941L10.1274 38.3676L10.0992 38.3137L10.0679 38.2617L8.35491 39.2941ZM8.39804 39.3766L10.2334 38.5819L10.2043 38.5148L10.1705 38.4501L8.39804 39.3766ZM46.9496 39.3766L45.1772 38.4501L45.1433 38.5148L45.1143 38.5819L46.9496 39.3766ZM46.9928 39.2941L45.2798 38.2617L45.2484 38.3137L45.2203 38.3676L46.9928 39.2941ZM49.9238 34.4307L51.6368 35.4631L51.7256 35.3157L51.7879 35.1553L49.9238 34.4307ZM25.3871 27.6038H27.3871V25.6038H25.3871V27.6038ZM25.3871 29.9111V31.9111H27.3871V29.9111H25.3871ZM12.7745 30.2699L11.4153 28.8027L11.392 28.8244L11.3693 28.8468L12.7745 30.2699ZM12.3957 31.6264H10.3957V33.6264H12.3957V31.6264ZM35.4597 31.6264V33.6264H39.5228L37.0446 30.4065L35.4597 31.6264ZM34.6554 30.5814L32.9868 31.684L33.0265 31.7441L33.0705 31.8012L34.6554 30.5814ZM33.4393 29.9111L33.472 27.9113L33.4556 27.9111H33.4393V29.9111ZM26.8275 29.9111H24.8275V31.9111H26.8275V29.9111ZM26.8275 25.3371V23.3371H24.8275V25.3371H26.8275ZM42.5566 24.9789L40.8203 23.9863L40.8148 23.996L40.8093 24.0058L42.5566 24.9789ZM42.5279 24.2694L44.1876 23.1535L44.1805 23.1429L44.1732 23.1323L42.5279 24.2694ZM26.7413 1.42725L25.0243 2.45294L25.0583 2.50983L25.096 2.56434L26.7413 1.42725ZM26.7125 1.37912L28.4295 0.353431L28.2906 0.120993L28.0949 -0.0661599L26.7125 1.37912ZM26.6981 1.36537L24.9812 2.39108L25.5632 3.36537H26.6981V1.36537ZM26.5903 1.2485L25.2198 2.70514L25.2796 2.76133L25.3437 2.81245L26.5903 1.2485ZM26.4466 1.15225L25.4873 2.90721L25.585 2.96058L25.688 3.00279L26.4466 1.15225ZM26.2877 1.09037L26.7529 -0.854784L26.5235 -0.909626H26.2877V1.09037ZM26.2518 1.0835L25.942 3.05935L26.0959 3.0835H26.2518V1.0835ZM26.0426 1.07594V3.07594H26.2784L26.5078 3.02109L26.0426 1.07594ZM25.9413 1.08969L25.5726 -0.876052L25.5655 -0.874691L25.9413 1.08969ZM25.8407 1.12406L26.4391 3.03242L26.4979 3.014L26.5554 2.99201L25.8407 1.12406ZM25.7106 1.18594L26.7562 2.89085L26.7647 2.88559L26.7733 2.88023L25.7106 1.18594ZM4.25085 25.5097L5.86683 26.6881L6.00199 26.5027L6.09167 26.2916L4.25085 25.5097ZM4.12794 26.8256L5.93293 25.9641L5.93065 25.9594L4.12794 26.8256ZM25.3871 23.87L23.5361 24.6275L27.3871 23.87H25.3871ZM25.3871 5.09162H27.3871L23.5147 4.38884L25.3871 5.09162ZM51.4243 32.2255C50.8252 31.382 49.8617 30.8673 48.7925 30.8673V34.8673C48.6816 34.8673 48.5569 34.8402 48.4374 34.778C48.3188 34.7162 48.2266 34.6311 48.1632 34.5418L51.4243 32.2255ZM48.7925 30.8673H36.8814V34.8673H48.7925V30.8673ZM36.8814 30.8673H36.4135V34.8673H36.8814V30.8673ZM36.4135 30.8673H12.0572V34.8673H36.4135V30.8673ZM12.0572 30.8673H11.5821V34.8673H12.0572V30.8673ZM11.5821 30.8673H6.55516V34.8673H11.5821V30.8673ZM6.55516 30.8673C5.48353 30.8673 4.52347 31.385 3.92627 32.2214L7.18161 34.5458C7.11929 34.6331 7.02872 34.7168 6.91153 34.7779C6.79316 34.8396 6.66827 34.8673 6.55516 34.8673V30.8673ZM3.91955 32.2309C3.30818 33.0977 3.18128 34.1817 3.55973 35.1553L7.28796 33.7061C7.33483 33.8266 7.35871 33.9753 7.33926 34.1355C7.31974 34.2962 7.26076 34.4336 7.18834 34.5363L3.91955 32.2309ZM3.71089 35.4631L6.64195 40.3264L10.0679 38.2617L7.1368 33.3983L3.71089 35.4631ZM6.58246 40.2206C6.58964 40.2343 6.59682 40.248 6.60401 40.2618C6.61119 40.2755 6.61839 40.2893 6.62558 40.3031L10.1705 38.4501C10.1633 38.4363 10.1561 38.4226 10.1489 38.4088C10.1418 38.3951 10.1346 38.3813 10.1274 38.3676L6.58246 40.2206ZM6.5627 40.1713C7.83242 43.1036 10.7614 44.9309 13.9655 44.9309V40.9309C12.272 40.9309 10.8367 39.9752 10.2334 38.5819L6.5627 40.1713ZM13.9655 44.9309H41.3822V40.9309H13.9655V44.9309ZM41.3822 44.9309C44.5863 44.9309 47.5152 43.1036 48.785 40.1713L45.1143 38.5819C44.511 39.9752 43.0756 40.9309 41.3822 40.9309V44.9309ZM48.7221 40.3031C48.7257 40.2962 48.7192 40.3087 48.7228 40.3018C48.7228 40.3017 48.7228 40.3017 48.7228 40.3016C48.7229 40.3016 48.7229 40.3015 48.7229 40.3015C48.723 40.3014 48.723 40.3014 48.723 40.3013C48.723 40.3012 48.7231 40.3012 48.7231 40.3011C48.7232 40.3009 48.7233 40.3007 48.7234 40.3005C48.7235 40.3004 48.7236 40.3002 48.7236 40.3002C48.7236 40.3001 48.7237 40.3001 48.7237 40.3C48.7237 40.3 48.7237 40.2999 48.7238 40.2998C48.7238 40.2997 48.724 40.2993 48.7241 40.2992C48.7241 40.2991 48.7242 40.299 48.7243 40.2989C48.7269 40.2939 48.7218 40.3036 48.7244 40.2986C48.7245 40.2985 48.7245 40.2985 48.7245 40.2984C48.7246 40.2983 48.7246 40.2983 48.7246 40.2982C48.7246 40.2982 48.7247 40.2981 48.7247 40.2981C48.7247 40.298 48.7247 40.298 48.7248 40.2979C48.7319 40.2844 48.7184 40.3102 48.7255 40.2966C48.7259 40.2958 48.7257 40.2962 48.7261 40.2953C48.7268 40.2941 48.7258 40.2959 48.7265 40.2947C48.7269 40.2938 48.7264 40.2949 48.7268 40.294C48.7273 40.2932 48.7267 40.2943 48.7271 40.2934C48.7279 40.2919 48.7267 40.2943 48.7275 40.2928C48.7323 40.2836 48.7234 40.3006 48.7281 40.2915C48.7288 40.2902 48.7282 40.2914 48.7288 40.2902C48.7291 40.2897 48.7292 40.2894 48.7295 40.2889C48.7296 40.2886 48.7295 40.2888 48.7297 40.2886C48.7297 40.2885 48.7297 40.2885 48.7297 40.2884C48.7298 40.2884 48.7298 40.2883 48.7298 40.2882C48.7299 40.2881 48.7301 40.2877 48.7302 40.2876C48.7302 40.2876 48.7303 40.2873 48.7303 40.2873C48.7303 40.2873 48.7305 40.287 48.7305 40.287C48.7383 40.2721 48.7231 40.3012 48.7308 40.2863C48.7309 40.2863 48.7309 40.2862 48.7309 40.2862C48.731 40.2861 48.731 40.286 48.731 40.286C48.731 40.2859 48.7311 40.2859 48.7311 40.2858C48.7311 40.2858 48.7311 40.2857 48.7312 40.2857C48.7318 40.2846 48.7309 40.2861 48.7315 40.285C48.7319 40.2843 48.7318 40.2845 48.7322 40.2837C48.7323 40.2835 48.7324 40.2834 48.7325 40.2831C48.7327 40.2827 48.7327 40.2828 48.7329 40.2824C48.7343 40.2798 48.7321 40.2838 48.7335 40.2812C48.7337 40.2809 48.7341 40.2801 48.7342 40.2799C48.7342 40.2798 48.7343 40.2798 48.7343 40.2797C48.7343 40.2797 48.7344 40.2796 48.7344 40.2795C48.7344 40.2795 48.7344 40.2794 48.7345 40.2794C48.7345 40.2793 48.7345 40.2793 48.7345 40.2792C48.7346 40.2792 48.7349 40.2786 48.7349 40.2786C48.7358 40.2769 48.7343 40.2797 48.7352 40.2779C48.7353 40.2777 48.7353 40.2778 48.7354 40.2776C48.7354 40.2776 48.7354 40.2775 48.7355 40.2774C48.7355 40.2774 48.7355 40.2773 48.7356 40.2773C48.7404 40.2679 48.7313 40.2854 48.7362 40.276C48.7363 40.2758 48.7368 40.2749 48.7369 40.2747C48.7372 40.2742 48.7373 40.2739 48.7376 40.2734C48.7377 40.2733 48.7378 40.2729 48.7379 40.2728C48.7384 40.2719 48.7378 40.273 48.7383 40.2721C48.7386 40.2716 48.7386 40.2714 48.7389 40.2708C48.7392 40.2703 48.7393 40.2701 48.7396 40.2696C48.7397 40.2693 48.7396 40.2695 48.7398 40.2692C48.7398 40.2692 48.7398 40.2691 48.7399 40.2691C48.7399 40.269 48.7399 40.269 48.7399 40.2689C48.74 40.2688 48.7402 40.2683 48.7403 40.2683C48.7404 40.268 48.7405 40.2678 48.7406 40.2676C48.7407 40.2675 48.7407 40.2674 48.7408 40.2673C48.7408 40.2672 48.7408 40.2672 48.7409 40.2671C48.7409 40.2671 48.7409 40.267 48.7409 40.267C48.741 40.267 48.7413 40.2663 48.7413 40.2663C48.7503 40.2491 48.7326 40.2829 48.7416 40.2657C48.7425 40.2641 48.7411 40.2666 48.742 40.265C48.7424 40.2643 48.7419 40.2652 48.7423 40.2644C48.7424 40.2643 48.7429 40.2632 48.743 40.2631C48.743 40.2631 48.743 40.263 48.7431 40.2629C48.7431 40.2629 48.7431 40.2628 48.7431 40.2628C48.7433 40.2624 48.7431 40.2628 48.7433 40.2625C48.7434 40.2623 48.7434 40.2623 48.7435 40.2621C48.7435 40.2621 48.7436 40.2619 48.7436 40.2618C48.7472 40.2549 48.7407 40.2674 48.7443 40.2605C48.7448 40.2596 48.7445 40.2601 48.745 40.2592C48.7452 40.2589 48.7455 40.2583 48.7457 40.258C48.7471 40.2553 48.7449 40.2593 48.7463 40.2567C48.749 40.2515 48.7443 40.2605 48.747 40.2554C48.7475 40.2545 48.7472 40.2549 48.7477 40.2541C48.7477 40.2541 48.7478 40.2538 48.7479 40.2538C48.7481 40.2532 48.7478 40.254 48.748 40.2534C48.7482 40.2531 48.7482 40.2531 48.7484 40.2528C48.7485 40.2526 48.7489 40.2517 48.749 40.2515C48.7538 40.2423 48.7449 40.2594 48.7497 40.2502C48.7498 40.25 48.7499 40.2498 48.75 40.2496C48.7578 40.2347 48.7424 40.2641 48.7502 40.2493C48.7502 40.2492 48.7503 40.2491 48.7503 40.2491C48.7503 40.249 48.7504 40.249 48.7504 40.2489C48.7506 40.2484 48.7508 40.2481 48.7511 40.2476C48.7511 40.2476 48.7511 40.2475 48.7511 40.2475C48.7512 40.2474 48.7512 40.2474 48.7512 40.2473C48.7514 40.2469 48.7512 40.2474 48.7514 40.247C48.7515 40.2468 48.7515 40.2469 48.7516 40.2467C48.7517 40.2465 48.7516 40.2466 48.7517 40.2464C48.7586 40.2332 48.7452 40.2589 48.7521 40.2457C48.7548 40.2405 48.7497 40.2502 48.7524 40.2451C48.7527 40.2445 48.7525 40.245 48.7527 40.2444C48.753 40.2439 48.7527 40.2446 48.7529 40.2441C48.753 40.2439 48.753 40.2439 48.7531 40.2438C48.7533 40.2434 48.7532 40.2435 48.7534 40.2431C48.7536 40.2428 48.7536 40.2428 48.7538 40.2425C48.7543 40.2414 48.7535 40.2429 48.7541 40.2418C48.7542 40.2416 48.7541 40.2418 48.7543 40.2415C48.759 40.2323 48.7496 40.2504 48.7544 40.2412C48.7558 40.2385 48.7537 40.2426 48.7551 40.2399C48.7559 40.2384 48.755 40.2401 48.7558 40.2386C48.7586 40.2332 48.7531 40.2437 48.7559 40.2383C48.7578 40.2347 48.7542 40.2416 48.7561 40.238C48.7574 40.2356 48.7552 40.2397 48.7564 40.2373C48.7565 40.2373 48.7565 40.2372 48.7565 40.2372C48.7566 40.2371 48.7566 40.2371 48.7566 40.237C48.7567 40.2368 48.7567 40.2369 48.7568 40.2367C48.7571 40.2362 48.7568 40.2366 48.7571 40.236C48.7576 40.2351 48.7573 40.2357 48.7578 40.2347C48.7586 40.2333 48.7577 40.235 48.7585 40.2335C48.7594 40.2317 48.7582 40.2339 48.7591 40.2322C48.7593 40.2318 48.7593 40.2318 48.7595 40.2315C48.7608 40.229 48.7585 40.2334 48.7598 40.2309C48.7601 40.2303 48.7602 40.2302 48.7605 40.2296C48.7608 40.229 48.7609 40.2289 48.7612 40.2283C48.7612 40.2282 48.7614 40.2278 48.7615 40.2277C48.7618 40.227 48.7615 40.2276 48.7618 40.227C48.7621 40.2265 48.7619 40.2269 48.7622 40.2264C48.7624 40.226 48.7623 40.2261 48.7625 40.2257C48.7626 40.2255 48.7631 40.2246 48.7632 40.2244C48.7634 40.2241 48.7633 40.2242 48.7635 40.2238C48.7636 40.2237 48.7638 40.2233 48.7639 40.2231C48.7639 40.223 48.7645 40.222 48.7645 40.2219C48.7646 40.2218 48.7646 40.2218 48.7646 40.2217C48.7646 40.2216 48.7647 40.2216 48.7647 40.2215C48.7647 40.2215 48.7648 40.2214 48.7648 40.2214C48.7648 40.2213 48.7648 40.2213 48.7649 40.2212C48.7651 40.2208 48.7648 40.2213 48.765 40.2209C48.7659 40.2193 48.7644 40.2221 48.7652 40.2206L45.2203 38.3676C45.2167 38.3744 45.2232 38.362 45.2196 38.3688C45.2196 38.3689 45.2196 38.3689 45.2195 38.369C45.2195 38.3691 45.2195 38.3691 45.2195 38.3692C45.2194 38.3692 45.2194 38.3693 45.2194 38.3693C45.2194 38.3694 45.2193 38.3694 45.2193 38.3695C45.2192 38.3697 45.2191 38.3699 45.219 38.3701C45.2189 38.3702 45.2188 38.3704 45.2188 38.3705C45.2188 38.3705 45.2187 38.3706 45.2187 38.3706C45.2187 38.3707 45.2186 38.3707 45.2186 38.3708C45.2186 38.3709 45.2183 38.3713 45.2183 38.3714C45.2182 38.3715 45.2182 38.3717 45.2181 38.3717C45.2155 38.3768 45.2206 38.3671 45.2179 38.3721C45.2179 38.3721 45.2179 38.3722 45.2179 38.3722C45.2178 38.3723 45.2178 38.3723 45.2178 38.3724C45.2178 38.3724 45.2177 38.3725 45.2177 38.3725C45.2177 38.3726 45.2176 38.3727 45.2176 38.3727C45.2105 38.3863 45.224 38.3604 45.2169 38.374C45.2165 38.3748 45.2167 38.3744 45.2163 38.3753C45.2156 38.3765 45.2166 38.3747 45.2159 38.3759C45.2155 38.3768 45.216 38.3757 45.2156 38.3766C45.2151 38.3775 45.2157 38.3763 45.2153 38.3772C45.2145 38.3787 45.2157 38.3764 45.2149 38.3779C45.2101 38.387 45.219 38.37 45.2142 38.3792C45.2136 38.3804 45.2142 38.3792 45.2136 38.3804C45.2133 38.3809 45.2132 38.3812 45.2129 38.3817C45.2128 38.382 45.2129 38.3818 45.2127 38.3821C45.2127 38.3821 45.2127 38.3822 45.2126 38.3822C45.2126 38.3823 45.2126 38.3823 45.2126 38.3824C45.2125 38.3825 45.2123 38.3829 45.2122 38.383C45.2122 38.3831 45.2121 38.3833 45.2121 38.3833C45.212 38.3834 45.2119 38.3837 45.2119 38.3837C45.2041 38.3986 45.2193 38.3694 45.2115 38.3843C45.2115 38.3844 45.2115 38.3844 45.2115 38.3845C45.2114 38.3845 45.2114 38.3846 45.2114 38.3846C45.2113 38.3847 45.2113 38.3847 45.2113 38.3848C45.2113 38.3848 45.2112 38.3849 45.2112 38.385C45.2106 38.3861 45.2114 38.3845 45.2109 38.3856C45.2105 38.3864 45.2106 38.3861 45.2102 38.3869C45.2101 38.3872 45.21 38.3873 45.2099 38.3875C45.2097 38.3879 45.2097 38.3878 45.2095 38.3882C45.2081 38.3909 45.2102 38.3868 45.2089 38.3895C45.2087 38.3897 45.2083 38.3905 45.2082 38.3908C45.2081 38.3908 45.2081 38.3909 45.2081 38.3909C45.2081 38.391 45.208 38.391 45.208 38.3911C45.208 38.3911 45.208 38.3912 45.2079 38.3912C45.2079 38.3913 45.2079 38.3913 45.2078 38.3914C45.2078 38.3915 45.2075 38.392 45.2075 38.392C45.2066 38.3938 45.2081 38.391 45.2072 38.3927C45.2071 38.3929 45.2071 38.3928 45.207 38.393C45.207 38.3931 45.2069 38.3931 45.2069 38.3932C45.2069 38.3932 45.2069 38.3933 45.2068 38.3933C45.2019 38.4027 45.211 38.3853 45.2062 38.3946C45.206 38.3948 45.2056 38.3957 45.2055 38.3959C45.2052 38.3964 45.2051 38.3967 45.2048 38.3972C45.2047 38.3973 45.2045 38.3977 45.2045 38.3978C45.204 38.3987 45.2046 38.3977 45.2041 38.3985C45.2038 38.3991 45.2038 38.3992 45.2035 38.3998C45.2032 38.4004 45.2031 38.4005 45.2028 38.4011C45.2027 38.4013 45.2027 38.4011 45.2026 38.4014C45.2026 38.4014 45.2026 38.4015 45.2025 38.4016C45.2025 38.4016 45.2025 38.4017 45.2024 38.4017C45.2024 38.4018 45.2021 38.4023 45.2021 38.4024C45.202 38.4026 45.2019 38.4028 45.2018 38.403C45.2017 38.4031 45.2017 38.4032 45.2016 38.4033C45.2016 38.4034 45.2016 38.4034 45.2015 38.4035C45.2015 38.4035 45.2015 38.4036 45.2014 38.4036C45.2014 38.4037 45.2011 38.4043 45.2011 38.4043C45.1921 38.4215 45.2097 38.3877 45.2008 38.4049C45.1999 38.4065 45.2013 38.404 45.2004 38.4056C45.2 38.4064 45.2005 38.4054 45.2001 38.4062C45.2 38.4063 45.1995 38.4074 45.1994 38.4075C45.1994 38.4076 45.1994 38.4076 45.1993 38.4077C45.1993 38.4077 45.1993 38.4078 45.1992 38.4078C45.1991 38.4082 45.1993 38.4078 45.1991 38.4082C45.199 38.4083 45.199 38.4083 45.1989 38.4085C45.1989 38.4086 45.1988 38.4087 45.1987 38.4088C45.1951 38.4157 45.2017 38.4032 45.1981 38.4101C45.1976 38.411 45.1979 38.4105 45.1974 38.4114C45.1972 38.4118 45.1969 38.4123 45.1967 38.4127C45.1953 38.4153 45.1974 38.4113 45.196 38.414C45.1934 38.4191 45.1981 38.4101 45.1954 38.4152C45.1949 38.4161 45.1951 38.4157 45.1947 38.4165C45.1947 38.4166 45.1945 38.4168 45.1945 38.4169C45.1943 38.4174 45.1946 38.4167 45.1944 38.4172C45.1942 38.4175 45.1942 38.4175 45.194 38.4178C45.1939 38.418 45.1935 38.4189 45.1934 38.4191C45.1886 38.4283 45.1975 38.4112 45.1927 38.4204C45.1926 38.4206 45.1925 38.4208 45.1923 38.421C45.1846 38.4359 45.2 38.4065 45.1922 38.4214C45.1921 38.4214 45.1921 38.4215 45.1921 38.4215C45.1921 38.4216 45.192 38.4216 45.192 38.4217C45.1917 38.4222 45.1916 38.4225 45.1913 38.423C45.1913 38.423 45.1913 38.4231 45.1912 38.4231C45.1912 38.4232 45.1912 38.4233 45.1912 38.4233C45.191 38.4237 45.1912 38.4233 45.191 38.4236C45.1909 38.4238 45.1909 38.4238 45.1908 38.4239C45.1907 38.4242 45.1908 38.4241 45.1907 38.4243C45.1838 38.4374 45.1972 38.4117 45.1903 38.4249C45.1876 38.4301 45.1927 38.4204 45.19 38.4256C45.1897 38.4261 45.1899 38.4257 45.1896 38.4262C45.1894 38.4267 45.1897 38.4261 45.1895 38.4265C45.1894 38.4267 45.1894 38.4267 45.1893 38.4269C45.1891 38.4272 45.1891 38.4272 45.189 38.4275C45.1888 38.4278 45.1888 38.4278 45.1886 38.4281C45.1881 38.4292 45.1888 38.4277 45.1883 38.4288C45.1882 38.429 45.1883 38.4289 45.1881 38.4291C45.1833 38.4383 45.1928 38.4203 45.188 38.4294C45.1866 38.4321 45.1887 38.428 45.1873 38.4307C45.1865 38.4322 45.1874 38.4305 45.1866 38.432C45.1838 38.4374 45.1893 38.4269 45.1864 38.4323C45.1846 38.4359 45.1881 38.4291 45.1863 38.4327C45.185 38.4351 45.1872 38.4309 45.1859 38.4333C45.1859 38.4333 45.1859 38.4334 45.1859 38.4335C45.1858 38.4335 45.1858 38.4336 45.1858 38.4336C45.1857 38.4338 45.1857 38.4337 45.1856 38.4339C45.1853 38.4345 45.1855 38.4341 45.1853 38.4346C45.1848 38.4355 45.1851 38.4349 45.1846 38.4359C45.1838 38.4374 45.1847 38.4357 45.1839 38.4372C45.183 38.4389 45.1842 38.4367 45.1832 38.4385C45.1831 38.4388 45.1831 38.4388 45.1829 38.4391C45.1816 38.4416 45.1839 38.4372 45.1826 38.4397C45.1823 38.4403 45.1822 38.4405 45.1819 38.441C45.1816 38.4416 45.1815 38.4417 45.1812 38.4423C45.1812 38.4424 45.1809 38.4429 45.1809 38.443C45.1806 38.4436 45.1809 38.443 45.1805 38.4436C45.1803 38.4441 45.1805 38.4438 45.1802 38.4443C45.18 38.4446 45.1801 38.4445 45.1799 38.4449C45.1798 38.4451 45.1793 38.446 45.1792 38.4462C45.179 38.4466 45.1791 38.4465 45.1789 38.4468C45.1788 38.4469 45.1786 38.4474 45.1785 38.4475C45.1785 38.4476 45.1779 38.4486 45.1779 38.4488C45.1778 38.4488 45.1778 38.4489 45.1778 38.4489C45.1777 38.449 45.1777 38.449 45.1777 38.4491C45.1777 38.4491 45.1776 38.4492 45.1776 38.4492C45.1776 38.4493 45.1775 38.4494 45.1775 38.4494C45.1773 38.4498 45.1775 38.4494 45.1773 38.4497C45.1765 38.4513 45.178 38.4485 45.1772 38.4501L48.7221 40.3031ZM48.7057 40.3264L51.6368 35.4631L48.2109 33.3983L45.2798 38.2617L48.7057 40.3264ZM51.7879 35.1553C52.1761 34.1567 52.0135 33.0881 51.4456 32.2561L48.1419 34.5112C48.0804 34.4211 48.0261 34.2968 48.0069 34.1453C47.9875 33.992 48.0079 33.8392 48.0597 33.7061L51.7879 35.1553ZM23.3871 27.6038V29.9111H27.3871V27.6038H23.3871ZM25.3871 27.9111H13.6916V31.9111H25.3871V27.9111ZM13.6916 27.9111C12.8479 27.9111 12.0377 28.2262 11.4153 28.8027L14.1337 31.7371C14.013 31.8489 13.8511 31.9111 13.6916 31.9111V27.9111ZM11.3693 28.8468C10.7634 29.445 10.3957 30.2628 10.3957 31.1513H14.3957C14.3957 31.3867 14.2954 31.5788 14.1797 31.6931L11.3693 28.8468ZM10.3957 31.1513V31.6264H14.3957V31.1513H10.3957ZM12.3957 33.6264H35.4597V29.6264H12.3957V33.6264ZM37.0446 30.4065L36.2403 29.3615L33.0705 31.8012L33.8748 32.8462L37.0446 30.4065ZM36.324 29.4787C35.6835 28.5095 34.6432 27.9305 33.472 27.9113L33.4066 31.9108C33.3484 31.9098 33.2598 31.8935 33.1659 31.8417C33.0723 31.7901 33.0146 31.7261 32.9868 31.684L36.324 29.4787ZM33.4393 27.9111H26.8275V31.9111H33.4393V27.9111ZM28.8275 29.9111V25.3371H24.8275V29.9111H28.8275ZM26.8275 27.3371H41.9227V23.3371H26.8275V27.3371ZM41.9227 27.3371C42.8599 27.3371 43.802 26.8533 44.3039 25.952L40.8093 24.0058C41.0654 23.546 41.5188 23.3371 41.9227 23.3371V27.3371ZM44.2929 25.9715C44.8137 25.0607 44.7407 23.9761 44.1876 23.1535L40.8681 25.3853C40.6026 24.9904 40.5598 24.4421 40.8203 23.9863L44.2929 25.9715ZM44.1732 23.1323L28.3866 0.290153L25.096 2.56434L40.8826 25.4065L44.1732 23.1323ZM28.4582 0.401556L28.4295 0.353431L24.9955 2.40482L25.0243 2.45294L28.4582 0.401556ZM28.0949 -0.0661599C28.2168 0.0504169 28.2999 0.160045 28.349 0.230472C28.3606 0.247034 28.3698 0.260868 28.3761 0.270294C28.3792 0.275019 28.3817 0.278914 28.3834 0.281535C28.385 0.284032 28.3863 0.285963 28.3864 0.286144C28.3925 0.295523 28.3709 0.261651 28.3461 0.226055C28.302 0.162791 28.1298 -0.0846158 27.8151 -0.295328C27.4497 -0.540012 27.0517 -0.634626 26.6981 -0.634626V3.36537C26.3482 3.36537 25.9529 3.27162 25.5897 3.02844C25.2772 2.81923 25.1068 2.57397 25.0645 2.51329C25.0406 2.47898 25.02 2.4465 25.027 2.45736C25.0273 2.45783 25.0448 2.48511 25.0675 2.51768C25.1188 2.59133 25.2046 2.70439 25.3301 2.82441L28.0949 -0.0661599ZM28.4151 0.339663C28.2117 -0.000719451 27.9691 -0.210102 27.8369 -0.315448L25.3437 2.81245C25.2978 2.77585 25.127 2.63522 24.9812 2.39108L28.4151 0.339663ZM27.9608 -0.208145C27.7852 -0.37332 27.5341 -0.563444 27.2052 -0.698295L25.688 3.00279C25.4596 2.90919 25.3077 2.78782 25.2198 2.70514L27.9608 -0.208145ZM27.4058 -0.602709C27.2171 -0.70586 27.0008 -0.795503 26.7529 -0.854784L25.8226 3.03553C25.6897 3.00375 25.5754 2.95536 25.4873 2.90721L27.4058 -0.602709ZM26.2877 -0.909626C26.3656 -0.909626 26.4327 -0.905041 26.4853 -0.899781C26.5383 -0.894484 26.5836 -0.887791 26.619 -0.881794C26.6546 -0.875756 26.6848 -0.869617 26.7081 -0.864564C26.7314 -0.859482 26.751 -0.854779 26.7653 -0.851205C26.7797 -0.847616 26.7913 -0.844533 26.7988 -0.842521C26.8062 -0.840523 26.8118 -0.838955 26.8137 -0.838434C26.8148 -0.838146 26.8155 -0.837941 26.8153 -0.837993C26.8153 -0.838001 26.8152 -0.838012 26.8151 -0.83804C26.8151 -0.838063 26.8149 -0.838104 26.8148 -0.838147C26.8144 -0.838234 26.8139 -0.838374 26.8134 -0.838539C26.8112 -0.839147 26.8061 -0.840578 26.7997 -0.842319C26.7871 -0.845767 26.7645 -0.851818 26.7364 -0.8586C26.7081 -0.865434 26.6707 -0.873839 26.6265 -0.882011C26.5824 -0.890184 26.5285 -0.89868 26.4669 -0.90518C26.4052 -0.91168 26.3328 -0.916501 26.2518 -0.916501V3.0835C26.1743 3.0835 26.1055 3.07889 26.0474 3.07277C25.9894 3.06664 25.9391 3.05869 25.8984 3.05116C25.8577 3.04363 25.8237 3.03598 25.7987 3.02995C25.774 3.02397 25.7547 3.01878 25.7452 3.01619C25.7404 3.01488 25.7368 3.01388 25.7362 3.01369C25.736 3.01365 25.7355 3.01351 25.7365 3.01378C25.737 3.01393 25.7385 3.01434 25.7402 3.01483C25.7436 3.01576 25.7506 3.01771 25.7594 3.02008C25.7683 3.02246 25.7812 3.02589 25.7969 3.0298C25.8125 3.0337 25.8333 3.0387 25.8579 3.04404C25.8823 3.04936 25.9137 3.05572 25.9505 3.06195C25.9869 3.06814 26.0333 3.07498 26.0873 3.08037C26.1409 3.08573 26.2089 3.09037 26.2877 3.09037V-0.909626ZM26.5616 -0.892357C26.5588 -0.892805 26.5561 -0.893226 26.5493 -0.894306C26.5436 -0.89521 26.5348 -0.896616 26.5251 -0.89812C26.5058 -0.901097 26.4755 -0.905669 26.4398 -0.910228C26.3686 -0.919304 26.2569 -0.930939 26.1217 -0.930939V3.06906C26.0303 3.06906 25.9618 3.06121 25.9337 3.05763C25.9195 3.05582 25.9108 3.05443 25.9132 3.0548C25.9143 3.05498 25.9163 3.05529 25.9215 3.05612C25.9256 3.05676 25.9339 3.05808 25.942 3.05935L26.5616 -0.892357ZM26.1217 -0.930939C26.0957 -0.930939 25.8601 -0.936814 25.5775 -0.869221L26.5078 3.02109C26.4037 3.04599 26.3054 3.05933 26.2185 3.06527C26.1509 3.06989 26.0937 3.06906 26.1217 3.06906V-0.930939ZM26.0426 -0.924064C25.8838 -0.924064 25.7556 -0.906251 25.6978 -0.89757C25.6371 -0.888456 25.5796 -0.877342 25.5726 -0.876039L26.31 3.05541C26.3397 3.04984 26.3184 3.05408 26.2921 3.05804C26.2752 3.06056 26.2456 3.0647 26.2073 3.06831C26.1697 3.07185 26.1129 3.07594 26.0426 3.07594V-0.924064ZM25.5655 -0.874691C25.3992 -0.84287 25.2692 -0.798293 25.1937 -0.77022C25.1594 -0.757462 25.1301 -0.745649 25.1226 -0.742648C25.1091 -0.737248 25.117 -0.740471 25.126 -0.743883L26.5554 2.99201C26.5822 2.98172 26.6072 2.97162 26.6104 2.97036C26.6195 2.9667 26.6064 2.97207 26.5882 2.97881C26.5451 2.99485 26.4475 3.02912 26.3171 3.05406L25.5655 -0.874691ZM25.2422 -0.784293C25.001 -0.708649 24.8029 -0.6056 24.6479 -0.508362L26.7733 2.88023C26.7059 2.92247 26.5927 2.98427 26.4391 3.03242L25.2422 -0.784293ZM24.665 -0.51898C14.7687 5.55021 6.66129 14.7191 2.41003 24.7278L6.09167 26.2916C9.99247 17.108 17.5121 8.56003 26.7562 2.89085L24.665 -0.51898ZM2.63487 24.3313C1.92622 25.3031 1.79263 26.5832 2.32523 27.6917L5.93065 25.9594C6.04638 26.2003 6.01198 26.489 5.86683 26.6881L2.63487 24.3313ZM2.32296 27.687C2.89905 28.8941 4.10343 29.6038 5.38863 29.6038V25.6038C5.57845 25.6038 5.81684 25.7209 5.93293 25.9642L2.32296 27.687ZM5.38863 29.6038H25.3871V25.6038H5.38863V29.6038ZM27.2381 23.1125C25.1332 17.9689 25.1102 11.5211 27.2596 5.79441L23.5147 4.38884C21.0411 10.9794 21.018 18.4741 23.5361 24.6275L27.2381 23.1125ZM23.3871 5.09162V23.87H27.3871V5.09162H23.3871Z" fill="black" mask="url(#path-1-inside-1_3_6)"/>
</g>
</g>
<defs>
<filter id="filter0_d_3_6" x="0" y="0" width="54" height="52" filterUnits="userSpaceOnUse" color-interpolation-filters="sRGB">
<feFlood flood-opacity="0" result="BackgroundImageFix"/>
<feColorMatrix in="SourceAlpha" type="matrix" values="0 0 0 0 0 0 0 0 0 0 0 0 0 0 0 0 0 0 127 0" result="hardAlpha"/>
<feOffset dy="4"/>
<feGaussianBlur stdDeviation="2"/>
<feComposite in2="hardAlpha" operator="out"/>
<feColorMatrix type="matrix" values="0 0 0 0 0 0 0 0 0 0 0 0 0 0 0 0 0 0 0.25 0"/>
<feBlend mode="normal" in2="BackgroundImageFix" result="effect1_dropShadow_3_6"/>
<feBlend mode="normal" in="SourceGraphic" in2="effect1_dropShadow_3_6" result="shape"/>
</filter>
<filter id="filter1_d_3_6" x="-9.91821e-05" y="1.06906" width="53.9998" height="49.8619" filterUnits="userSpaceOnUse" color-interpolation-filters="sRGB">
<feFlood flood-opacity="0" result="BackgroundImageFix"/>
<feColorMatrix in="SourceAlpha" type="matrix" values="0 0 0 0 0 0 0 0 0 0 0 0 0 0 0 0 0 0 127 0" result="hardAlpha"/>
<feOffset dy="4"/>
<feGaussianBlur stdDeviation="2"/>
<feComposite in2="hardAlpha" operator="out"/>
<feColorMatrix type="matrix" values="0 0 0 0 0 0 0 0 0 0 0 0 0 0 0 0 0 0 0.25 0"/>
<feBlend mode="normal" in2="BackgroundImageFix" result="effect1_dropShadow_3_6"/>
<feBlend mode="normal" in="SourceGraphic" in2="effect1_dropShadow_3_6" result="shape"/>
</filter>
<clipPath id="clip0_3_6">
<rect width="46" height="44" fill="white" transform="translate(4)"/>
</clipPath>
</defs>
</svg>
